<?xml version="1.0" encoding="UTF-8" standalone="no"?>
<svg
   xmlns:dc="http://purl.org/dc/elements/1.1/"
   xmlns:cc="http://creativecommons.org/ns#"
   xmlns:rdf="http://www.w3.org/1999/02/22-rdf-syntax-ns#"
   xmlns:svg="http://www.w3.org/2000/svg"
   xmlns="http://www.w3.org/2000/svg"
   xmlns:sodipodi="http://sodipodi.sourceforge.net/DTD/sodipodi-0.dtd"
   xmlns:inkscape="http://www.inkscape.org/namespaces/inkscape"
   version="1.1"
   id="Layer_1"
   x="0px"
   y="0px"
   width="122.881px"
   height="122.88px"
   viewBox="0 0 122.881 122.88"
   enable-background="new 0 0 122.881 122.88"
   xml:space="preserve"
   sodipodi:docname="macro_icon.svg"
   inkscape:version="1.0.2-2 (e86c870879, 2021-01-15)"
   inkscape:export-filename="C:\Users\nutri\projects\ryven projects\ryvencore-qt\ryvencore_qt\resources\pics\macro_node_icon.png"
   inkscape:export-xdpi="390.62183"
   inkscape:export-ydpi="390.62183"><metadata
     id="metadata11"><rdf:RDF><cc:Work
         rdf:about=""><dc:format>image/svg+xml</dc:format><dc:type
           rdf:resource="http://purl.org/dc/dcmitype/StillImage" /></cc:Work></rdf:RDF></metadata><defs
     id="defs9" /><sodipodi:namedview
     pagecolor="#ffffff"
     bordercolor="#666666"
     borderopacity="1"
     objecttolerance="10"
     gridtolerance="10"
     guidetolerance="10"
     inkscape:pageopacity="0"
     inkscape:pageshadow="2"
     inkscape:window-width="1920"
     inkscape:window-height="1017"
     id="namedview7"
     showgrid="false"
     inkscape:zoom="6.9173179"
     inkscape:cx="53.516881"
     inkscape:cy="67.838404"
     inkscape:window-x="-8"
     inkscape:window-y="-8"
     inkscape:window-maximized="1"
     inkscape:current-layer="g4" /><g
     id="g4"><path
       d="m 88.129304,30.22352 c -0.241054,-0.241055 -0.489414,-0.414907 -0.745078,-0.523016 -0.239595,-0.101536 -0.519365,-0.151207 -0.84004,-0.151207 -0.322138,0 -0.607751,0.05113 -0.850268,0.154129 -0.251281,0.105918 -0.493797,0.276848 -0.726086,0.51279 l -0.01533,0.01533 -4.534025,4.520146 c -0.679341,0.675688 -1.729026,0.750926 -2.490906,0.22864 -0.533242,-0.344781 -1.101547,-0.677146 -1.697611,-0.999282 -0.631856,-0.34186 -1.251294,-0.648657 -1.856124,-0.926236 -0.630395,-0.287805 -1.273938,-0.558809 -1.929169,-0.813013 -0.593872,-0.230828 -1.255678,-0.466039 -1.977382,-0.704172 -0.826161,-0.272465 -1.351369,-1.04092 -1.351369,-1.867081 v 0 -6.95261 c 0,-0.333094 -0.05259,-0.627473 -0.15705,-0.883868 -0.104458,-0.253473 -0.2637,-0.489415 -0.483572,-0.708555 -0.214027,-0.214028 -0.446317,-0.37254 -0.70052,-0.475536 -0.255664,-0.104458 -0.550774,-0.15632 -0.884599,-0.15632 h -8.725463 c -0.308989,0 -0.582915,0.04967 -0.822509,0.149015 -0.254204,0.104457 -0.503294,0.275387 -0.749462,0.51352 l -0.0029,0.0022 c -0.216219,0.216219 -0.375461,0.446317 -0.477727,0.691025 -0.105188,0.25055 -0.157781,0.539816 -0.157781,0.868527 v 6.365313 c 0,0.967872 -0.69906,1.772119 -1.619452,1.936475 -0.69906,0.166547 -1.344794,0.338938 -1.932822,0.519364 -0.644275,0.197227 -1.292201,0.421481 -1.941589,0.674954 -0.03214,0.01241 -0.06428,0.0241 -0.09642,0.03434 -0.567575,0.220602 -1.165829,0.476266 -1.794034,0.766262 -0.638429,0.294379 -1.233032,0.593141 -1.783806,0.893365 -0.776489,0.422942 -1.712951,0.265891 -2.311937,-0.323599 l -7.3e-4,7.31e-4 -5.021249,-4.948932 c -0.01533,-0.01533 -0.03068,-0.03068 -0.04602,-0.04602 v 7.31e-4 c -0.213997,-0.226468 -0.438982,-0.392286 -0.674923,-0.495282 -0.226446,-0.09861 -0.494528,-0.149016 -0.807169,-0.149016 -0.310449,0 -0.588028,0.05259 -0.832005,0.157051 -0.267352,0.113953 -0.523016,0.292189 -0.768454,0.532513 l -0.0015,0.0015 -6.091386,6.105266 -0.0037,0.0044 0.0037,0.0037 c -0.249821,0.249821 -0.426594,0.49818 -0.531053,0.745079 -0.101534,0.239594 -0.151936,0.519364 -0.151936,0.83931 0,0.322867 0.05113,0.60775 0.154129,0.851727 0.105917,0.250552 0.276117,0.493067 0.512789,0.725357 l 0.01533,0.01533 4.520147,4.534755 c 0.675685,0.679338 0.750922,1.729023 0.228636,2.490902 -0.344781,0.533974 -0.677144,1.101549 -0.998551,1.697611 -0.34186,0.632588 -0.648657,1.250565 -0.926235,1.856855 -0.288535,0.629665 -0.55954,1.273939 -0.814474,1.92917 -0.230828,0.593142 -0.46531,1.254947 -0.703443,1.976651 -0.272465,0.826892 -1.041649,1.351369 -1.86708,1.351369 v 7.3e-4 h -6.9504 c -0.334555,0 -0.628204,0.05186 -0.884598,0.155591 -0.252744,0.103726 -0.486493,0.261508 -0.699791,0.475536 l -0.008,0.0088 v 0 c -0.214026,0.214027 -0.372538,0.447047 -0.476266,0.699789 -0.104456,0.256395 -0.155589,0.550775 -0.155589,0.884599 v 8.72619 c 0,0.308259 0.04894,0.582915 0.148286,0.821779 0.105186,0.254204 0.276117,0.503293 0.514249,0.750192 l 0.0022,0.0015 c 0.215488,0.21622 0.446316,0.376192 0.690293,0.477728 0.251282,0.105187 0.540547,0.15778 0.869259,0.15778 h 6.364582 c 0.967872,0 1.772119,0.69906 1.936475,1.620182 0.166547,0.69833 0.338938,1.344795 0.519364,1.932823 0.197957,0.644275 0.421481,1.291471 0.674954,1.940858 0.238132,0.618708 0.508406,1.261522 0.809361,1.927709 0.307528,0.681528 0.608481,1.302428 0.900669,1.864159 0.406871,0.778681 0.238132,1.706378 -0.355009,2.295866 l 0.0015,0.0015 -4.949662,4.935053 -0.03141,0.03068 h 7.31e-4 c -0.226446,0.214759 -0.392262,0.439743 -0.494528,0.674954 -0.09934,0.226446 -0.149016,0.495259 -0.149016,0.8079 0,0.310449 0.05259,0.587297 0.15632,0.831275 0.113954,0.267351 0.292189,0.523746 0.533243,0.768454 l 6.069473,6.139598 c 0.237402,0.21987 0.485032,0.380573 0.744348,0.482106 0.260048,0.102999 0.555157,0.153399 0.88533,0.153399 0.333093,0 0.633317,-0.05186 0.897746,-0.156319 0.254205,-0.100073 0.493068,-0.253472 0.714399,-0.460925 l 4.498964,-4.570549 c 0.678606,-0.689564 1.741439,-0.772106 2.511354,-0.240325 0.532512,0.343321 1.098627,0.674224 1.693228,0.994901 0.632588,0.342589 1.250565,0.649387 1.856855,0.926234 0.629665,0.289266 1.273939,0.560271 1.92917,0.814475 0.593142,0.230097 1.254217,0.465308 1.976651,0.703441 0.826892,0.272466 1.351369,1.041651 1.351369,1.86708 h 7.3e-4 v 6.952609 c 0,0.3331 0.05186,0.62748 0.156321,0.88387 0.103726,0.25348 0.261508,0.4865 0.475536,0.70052 l 0.0037,0.005 0.0037,-0.005 c 0.428785,0.42879 0.954724,0.63989 1.584388,0.63989 h 8.72473 c 0.30972,0 0.583645,-0.0489 0.823239,-0.14828 0.254204,-0.10519 0.503294,-0.27612 0.748731,-0.51425 l 0.0029,-0.003 c 0.215489,-0.21622 0.375461,-0.44632 0.477726,-0.69029 0.105919,-0.25128 0.158513,-0.53981 0.158513,-0.86853 v -6.366049 c 0,-0.967137 0.697599,-1.772115 1.61945,-1.93574 0.6976,-0.166548 1.344065,-0.339669 1.932824,-0.519364 0.643544,-0.197958 1.291471,-0.421482 1.940128,-0.674224 0.619437,-0.238863 1.262981,-0.509137 1.93063,-0.810091 0.679338,-0.307527 1.300966,-0.60775 1.860506,-0.899938 0.780142,-0.406872 1.707839,-0.237403 2.297328,0.355008 l 0.0015,-0.0015 4.935054,4.948927 0.02995,0.03142 v -7.31e-4 c 0.21695,0.227907 0.441935,0.392991 0.676415,0.495259 0.229367,0.09862 0.506216,0.149017 0.836387,0.149017 0.323599,0 0.60483,-0.0526 0.847345,-0.157051 0.243977,-0.105919 0.471154,-0.268811 0.677876,-0.487225 0.02265,-0.02486 0.04675,-0.04891 0.07305,-0.07303 l 6.1133,-6.042441 c 0.218411,-0.236673 0.379845,-0.485032 0.48065,-0.744349 0.102999,-0.260046 0.154129,-0.555888 0.154129,-0.88606 0,-0.333093 -0.05112,-0.633316 -0.155589,-0.897746 -0.101537,-0.254205 -0.254204,-0.492337 -0.462389,-0.713669 L 88.14414,80.433189 c -0.690294,-0.678606 -0.772106,-1.740709 -0.241054,-2.511354 0.34405,-0.532512 0.674953,-1.098626 0.99563,-1.692498 0.34259,-0.631857 0.649387,-1.250565 0.926235,-1.856855 0.288536,-0.629664 0.55954,-1.273939 0.814474,-1.929169 0.229367,-0.593142 0.465309,-1.254947 0.703442,-1.977382 0.272465,-0.826891 1.041649,-1.351369 1.867813,-1.351369 v -7.31e-4 h 6.95115 c 0.33383,0 0.62893,-0.05186 0.88461,-0.15632 0.25274,-0.103727 0.48648,-0.261508 0.70051,-0.474805 l 0.007,-0.008 v 0 c 0.21401,-0.214757 0.37399,-0.447777 0.47626,-0.701251 0.10446,-0.255664 0.15558,-0.550043 0.15558,-0.883868 v -8.725981 c 0,-0.308258 -0.0483,-0.582915 -0.14828,-0.822509 -0.10445,-0.253473 -0.27539,-0.503294 -0.51352,-0.750192 l -0.004,-0.0022 c -0.21548,-0.216219 -0.44631,-0.375462 -0.69028,-0.477727 -0.24983,-0.105188 -0.53909,-0.157781 -0.86854,-0.157781 h -6.36458 c -0.980289,0 -1.791841,-0.715131 -1.941587,-1.652322 -0.15413,-0.615787 -0.327981,-1.240338 -0.525208,-1.874386 -0.189923,-0.608482 -0.411985,-1.252025 -0.672032,-1.932092 -0.01314,-0.03288 -0.02411,-0.06647 -0.03433,-0.100075 -0.246899,-0.646465 -0.499642,-1.254216 -0.758959,-1.823253 -0.281231,-0.615785 -0.579262,-1.211118 -0.894825,-1.786728 -0.422211,-0.776489 -0.265161,-1.712951 0.323597,-2.311936 v -7.3e-4 l 4.948935,-5.021249 c 0.01534,-0.01533 0.02996,-0.03068 0.04604,-0.04602 v 0 c 0.227177,-0.214028 0.39226,-0.439012 0.495259,-0.674224 0.09862,-0.226445 0.149747,-0.494527 0.149747,-0.807168 0,-0.31045 -0.0526,-0.588028 -0.15705,-0.832006 -0.113953,-0.267351 -0.292191,-0.523016 -0.533243,-0.768453 l -0.0016,-0.0015 -6.105999,-6.091387 -0.0073,-0.0066 v 0 z m 0.775759,-4.135189 c 0.731931,0.308989 1.396658,0.76115 1.995643,1.360135 l 0.0015,7.31e-4 6.122067,6.108187 0.01533,0.01533 c 0.589498,0.598985 1.040193,1.258599 1.348445,1.981764 0.318492,0.745809 0.479199,1.535448 0.479199,2.368913 0,0.845884 -0.164357,1.636252 -0.487961,2.374756 -0.315562,0.724627 -0.776489,1.368901 -1.372549,1.937937 l -3.920427,3.977407 c 0.115414,0.240325 0.230828,0.483571 0.342591,0.72974 0.314099,0.68518 0.601901,1.371821 0.86341,2.059193 0.0146,0.03068 0.027,0.06209 0.03873,0.09423 0.260779,0.68445 0.510603,1.411999 0.748734,2.177531 0.07672,0.246898 0.151207,0.495258 0.222795,0.745809 h 4.85907 c 0.84443,0 1.6348,0.15486 2.37549,0.46458 0.72755,0.304605 1.38497,0.753843 1.97154,1.344794 l 0.0416,0.04164 c 0.57779,0.597523 1.01608,1.256407 1.31411,1.979573 0.30533,0.735582 0.45654,1.506228 0.45654,2.313397 v 8.725461 c 0,0.839308 -0.14829,1.625293 -0.44777,2.359416 -0.2995,0.732661 -0.74582,1.398119 -1.34261,1.996373 l -0.004,0.0022 -0.004,0.0051 -0.004,0.0029 c -0.59898,0.596795 -1.26371,1.044572 -1.99856,1.344065 -0.73484,0.298762 -1.52083,0.447778 -2.35941,0.447778 h -5.558145 c -0.09715,0.261508 -0.197955,0.531782 -0.306797,0.807899 -0.278307,0.71513 -0.579261,1.43026 -0.905776,2.144659 -0.338212,0.738505 -0.682263,1.436103 -1.032888,2.086952 -0.115414,0.213297 -0.233751,0.425864 -0.355009,0.63843 l 3.469731,3.415676 c 0.0256,0.02411 0.04964,0.04821 0.07598,0.07451 0.569036,0.601906 0.99709,1.270287 1.285626,2.000756 0.289268,0.733392 0.432441,1.510612 0.432441,2.327277 0,0.813743 -0.142443,1.584388 -0.429521,2.314858 -0.287075,0.728278 -0.710746,1.393736 -1.27394,1.997104 v -7.31e-4 c -0.0197,0.02045 -0.04021,0.04237 -0.06138,0.06282 l -6.157861,6.087008 c -0.577801,0.60556 -1.22865,1.068678 -1.95912,1.382771 -0.737774,0.318492 -1.535447,0.479929 -2.398132,0.479929 -0.844423,0 -1.640634,-0.165088 -2.388636,-0.487231 -0.740696,-0.320673 -1.395197,-0.784521 -1.965694,-1.386422 L 76.72782,93.079671 c -0.260778,0.125647 -0.516442,0.244712 -0.764802,0.357204 -0.664727,0.299495 -1.375474,0.595329 -2.130049,0.886789 -0.709286,0.276115 -1.449253,0.531052 -2.216976,0.766262 -0.255664,0.0782 -0.507676,0.152668 -0.756036,0.223525 v 4.848849 c 0,0.8437 -0.15559,1.63479 -0.465309,2.37476 -0.305337,0.72828 -0.753115,1.38497 -1.345525,1.97227 l -0.04164,0.0423 c -0.597525,0.57634 -1.257138,1.0139 -1.978843,1.31338 -0.736313,0.30461 -1.506958,0.45582 -2.314127,0.45582 h -8.725748 c -1.715873,0 -3.165124,-0.59168 -4.366017,-1.79258 l 0.0037,-0.004 c -0.598985,-0.59971 -1.048224,-1.26663 -1.347717,-2.00222 -0.299492,-0.73485 -0.448508,-1.52011 -0.448508,-2.35942 v -5.557736 c -0.261895,-0.09715 -0.531439,-0.198687 -0.808286,-0.306797 -0.7144,-0.278307 -1.42953,-0.579261 -2.143929,-0.906507 -0.738504,-0.337484 -1.436104,-0.682265 -2.087682,-1.033622 -0.212567,-0.114683 -0.425134,-0.233018 -0.6377,-0.354277 l -3.415676,3.469733 c -0.02411,0.0256 -0.04894,0.05038 -0.07451,0.07524 -0.601908,0.570497 -1.270288,0.998551 -2.000757,1.286358 -0.733392,0.289259 -1.510611,0.433162 -2.327276,0.433162 -0.813743,0 -1.58512,-0.142443 -2.314859,-0.430242 -0.728278,-0.287075 -1.393006,-0.710747 -1.997104,-1.273202 l 7.3e-4,-0.0016 c -0.02118,-0.01896 -0.04237,-0.03947 -0.06209,-0.06064 l -6.122065,-6.192922 c -0.588759,-0.598985 -1.039458,-1.25933 -1.347717,-1.982494 -0.317754,-0.746541 -0.479187,-1.535447 -0.479187,-2.368182 0,-0.845885 0.164355,-1.636253 0.487222,-2.375489 0.319216,-0.729738 0.782333,-1.377665 1.385701,-1.950354 l 3.914588,-3.903628 C 29.674931,76.468824 29.555133,76.213159 29.442642,75.962609 29.142419,75.298612 28.847309,74.589326 28.556582,73.83548 28.280465,73.126194 28.0248,72.386229 27.789589,71.617775 27.711426,71.36138 27.636921,71.110098 27.566065,70.861739 h -4.847397 c -0.844422,0 -1.635521,-0.155591 -2.374756,-0.46531 -0.729009,-0.304605 -1.385701,-0.753114 -1.972268,-1.344794 l -0.04237,-0.04383 C 17.752203,68.41101 17.314651,67.751396 17.015889,67.028961 16.711283,66.292648 16.560076,65.522002 16.560076,64.716294 v -8.72619 c 0,-0.83931 0.149016,-1.625296 0.448508,-2.359417 0.299493,-0.734121 0.74581,-1.39958 1.343334,-1.997834 l 7.31e-4,-7.31e-4 0.0044,-0.0037 0.0037,-0.0037 c 0.598986,-0.597444 1.263714,-1.044491 1.998565,-1.343984 0.734124,-0.299492 1.520109,-0.447778 2.359418,-0.447778 h 5.558144 c 0.09642,-0.262238 0.198688,-0.531781 0.306797,-0.808629 0.277579,-0.7144 0.579262,-1.42953 0.906513,-2.14466 0.337477,-0.738505 0.681528,-1.436103 1.033614,-2.086951 0.116875,-0.21695 0.238134,-0.4339 0.362313,-0.650849 l -3.419328,-3.430285 -0.0015,-7.31e-4 c -0.604097,-0.593871 -1.061372,-1.262252 -1.373283,-2.000756 -0.319214,-0.753845 -0.476996,-1.547135 -0.476996,-2.373296 0,-0.824701 0.157051,-1.610686 0.474074,-2.360878 0.314103,-0.742888 0.766994,-1.411268 1.360866,-2.00514 l 0.0037,0.0037 6.103804,-6.118414 0.01533,-0.01533 c 0.598984,-0.588759 1.258599,-1.039459 1.981764,-1.347717 0.74654,-0.317754 1.535448,-0.479918 2.368913,-0.479918 0.845153,0 1.635521,0.164355 2.374757,0.487222 0.724626,0.316294 1.3689,0.776491 1.937936,1.373284 l 3.974485,3.916778 c 0.238864,-0.118336 0.476997,-0.231559 0.714399,-0.341129 0.611403,-0.281961 1.286358,-0.566114 2.024863,-0.852459 0.03141,-0.0146 0.06355,-0.02776 0.09569,-0.04018 0.709287,-0.276118 1.449983,-0.531781 2.218436,-0.766993 0.255665,-0.07816 0.507677,-0.152668 0.756036,-0.223525 v -4.848126 c 0,-0.843693 0.155591,-1.634791 0.46531,-2.374027 0.304605,-0.729008 0.753844,-1.385701 1.344794,-1.972998 l 0.04164,-0.04164 c 0.597524,-0.577071 1.256407,-1.013892 1.978842,-1.312654 0.736313,-0.305336 1.506958,-0.456543 2.314128,-0.456543 h 8.724729 c 0.838579,0 1.625294,0.148285 2.359417,0.447777 0.737774,0.300954 1.405424,0.750193 2.007331,1.351369 0.594602,0.596064 1.043111,1.262252 1.344064,1.999295 0.299492,0.734123 0.447778,1.520108 0.447778,2.358687 v 5.558875 c 0.262238,0.09715 0.531051,0.199418 0.808629,0.306797 0.713669,0.277579 1.428069,0.579262 2.143198,0.905782 0.739235,0.337477 1.436835,0.682259 2.086952,1.034345 0.21841,0.117606 0.43536,0.238133 0.65231,0.362313 l 3.429554,-3.419328 0.0015,-7.31e-4 c 0.593871,-0.604098 1.262982,-1.061372 2.000026,-1.373283 0.754575,-0.319215 1.546404,-0.476997 2.372565,-0.476997 0.826162,0 1.612147,0.156321 2.362339,0.473345 z M 61.440135,42.379266 c 1.300966,0 2.570522,0.12418 3.808669,0.371078 1.216963,0.243247 2.423698,0.616517 3.618016,1.120541 l 0.01314,0.0058 0.0029,-0.0058 c 1.140263,0.492336 2.221358,1.080364 3.244016,1.765545 1.013161,0.678606 1.951815,1.444869 2.812307,2.297327 l 0.0073,0.008 v 0 c 0.853189,0.861222 1.619452,1.799145 2.298058,2.813038 0.685181,1.022657 1.272478,2.103753 1.764815,3.244015 0.02264,0.05405 0.0431,0.10811 0.06136,0.162895 0.471883,1.146107 0.826161,2.302441 1.05845,3.470461 0.24836,1.238877 0.371078,2.507703 0.371078,3.807939 0,1.300966 -0.122718,2.570522 -0.371078,3.808669 -0.242515,1.217693 -0.616517,2.422968 -1.119809,3.618016 l -0.0058,0.01314 0.0058,0.0029 c -0.492337,1.140263 -1.080365,2.220628 -1.764816,3.243285 -0.679337,1.013892 -1.445599,1.951816 -2.298057,2.813038 l -0.0073,0.008 v 0 c -0.861953,0.853188 -1.799147,1.619451 -2.813769,2.298058 -1.021196,0.68518 -2.103022,1.272478 -3.242554,1.764814 -0.05405,0.02265 -0.10811,0.04383 -0.164356,0.06136 -1.145376,0.472614 -2.30244,0.826162 -3.46973,1.059181 -1.238148,0.247629 -2.508433,0.371079 -3.80867,0.371079 -1.300967,0 -2.569792,-0.12345 -3.807938,-0.371079 -1.217693,-0.243246 -2.423699,-0.617246 -3.618747,-1.12054 l -0.01314,-0.0058 -0.0022,0.0058 C 52.857858,78.517835 51.776032,77.929807 50.754105,77.245357 49.740214,76.566751 48.802291,75.800488 47.941798,74.9473 l -0.0073,-0.008 v 0 c -0.853189,-0.861954 -1.620183,-1.799147 -2.298058,-2.813769 -0.684451,-1.021927 -1.272479,-2.103753 -1.764085,-3.242555 -0.02338,-0.05405 -0.04383,-0.10811 -0.06209,-0.163625 -0.472614,-1.146107 -0.826161,-2.30244 -1.05918,-3.470461 -0.2469,-1.238147 -0.37108,-2.507703 -0.37108,-3.80867 0,-1.300966 0.12345,-2.569792 0.37108,-3.807938 0.243245,-1.217693 0.617245,-2.423699 1.121269,-3.618017 l 0.0051,-0.01314 -0.0051,-0.0022 c 0.491607,-1.140263 1.080365,-2.221358 1.764085,-3.243285 0.678606,-1.014622 1.444869,-1.951815 2.298058,-2.813769 l 0.008,-0.0073 v 0 c 0.860492,-0.852458 1.798415,-1.61872 2.811577,-2.297327 1.022658,-0.684451 2.104484,-1.273209 3.244746,-1.765545 0.05405,-0.02338 0.10811,-0.04383 0.163625,-0.06136 1.146108,-0.472613 2.301711,-0.82543 3.469731,-1.05845 1.238146,-0.248359 2.506972,-0.37254 3.807939,-0.37254 z m 3.040214,4.227958 c -0.981751,-0.196497 -1.994182,-0.294379 -3.040214,-0.294379 -1.045303,0 -2.057733,0.09788 -3.040215,0.294379 -0.953994,0.190653 -1.864889,0.463848 -2.732687,0.819587 -0.03799,0.01899 -0.0767,0.03799 -0.116875,0.05478 -0.94815,0.409793 -1.82033,0.880217 -2.615081,1.411998 -0.800595,0.535434 -1.541291,1.141724 -2.22355,1.816678 -0.675684,0.68299 -1.281974,1.425146 -1.818139,2.226472 -0.531781,0.79402 -1.002205,1.66547 -1.411268,2.61362 l -0.0051,-0.0022 c -0.380575,0.903591 -0.669841,1.854663 -0.869989,2.852485 -0.195766,0.981751 -0.293649,1.994181 -0.293649,3.039483 0,1.045303 0.09788,2.057733 0.293649,3.040215 0.190652,0.953994 0.464579,1.86489 0.820317,2.732687 0.01899,0.03872 0.03799,0.0767 0.05478,0.116876 0.409062,0.948149 0.879485,1.818869 1.410536,2.612889 0.536165,0.801326 1.142455,1.543483 1.81887,2.226472 0.682258,0.675685 1.423685,1.281243 2.22428,1.816679 0.79402,0.531781 1.665471,1.002203 2.614351,1.411997 l -0.0022,0.0051 c 0.904321,0.380575 1.854662,0.670572 2.852484,0.86926 0.981751,0.196495 1.994913,0.293649 3.040215,0.293649 1.045302,0 2.058463,-0.09788 3.040215,-0.293649 0.954724,-0.190653 1.864888,-0.46385 2.733417,-0.819588 0.03726,-0.01899 0.0767,-0.03799 0.116874,-0.05478 0.94742,-0.409795 1.81887,-0.880217 2.613622,-1.411999 0.800594,-0.535434 1.542021,-1.141723 2.224279,-1.816677 0.676415,-0.68299 1.282705,-1.424416 1.81887,-2.225741 0.531051,-0.794021 1.001474,-1.665472 1.409806,-2.613621 l 0.0058,0.0022 c 0.380574,-0.903592 0.670571,-1.854663 0.869989,-2.851754 0.195765,-0.982482 0.293648,-1.994913 0.293648,-3.040215 0,-1.045302 -0.09861,-2.057733 -0.293648,-3.039484 -0.191383,-0.954724 -0.463848,-1.864889 -0.820317,-2.733418 -0.01972,-0.03799 -0.03726,-0.0767 -0.05551,-0.116874 -0.408332,-0.948151 -0.878755,-1.8196 -1.411267,-2.613621 -0.534704,-0.801325 -1.141724,-1.543483 -1.817409,-2.225741 -0.682259,-0.674954 -1.423685,-1.281244 -2.22428,-1.816678 -0.794751,-0.531782 -1.666201,-1.002204 -2.613621,-1.411998 l 0.0015,-0.0051 c -0.90359,-0.380576 -1.853931,-0.670572 -2.852484,-0.86999 z"
       id="path2"
       style="fill:#448aff;fill-opacity:0.98431373;stroke-width:0.803517;stroke-miterlimit:4;stroke-dasharray:none"
       inkscape:export-xdpi="390.62183"
       inkscape:export-ydpi="390.62183" /></g></svg>
