<?xml version="1.0" encoding="UTF-8" standalone="no"?>
<svg
   xmlns:dc="http://purl.org/dc/elements/1.1/"
   xmlns:cc="http://creativecommons.org/ns#"
   xmlns:rdf="http://www.w3.org/1999/02/22-rdf-syntax-ns#"
   xmlns:svg="http://www.w3.org/2000/svg"
   xmlns="http://www.w3.org/2000/svg"
   xmlns:sodipodi="http://sodipodi.sourceforge.net/DTD/sodipodi-0.dtd"
   xmlns:inkscape="http://www.inkscape.org/namespaces/inkscape"
   version="1.1"
   id="Layer_1"
   x="0px"
   y="0px"
   viewBox="0 0 117.12 117.12"
   xml:space="preserve"
   sodipodi:docname="script_picture.svg"
   inkscape:export-filename="C:\Users\nutri\projects\ryven projects\ryvencore-qt\ryvencore_qt\resources\pics\script_picture.png"
   inkscape:export-xdpi="507.73843"
   inkscape:export-ydpi="507.73843"
   width="1.22in"
   height="1.22in"
   inkscape:version="1.0.2-2 (e86c870879, 2021-01-15)"><metadata
     id="metadata13"><rdf:RDF><cc:Work
         rdf:about=""><dc:format>image/svg+xml</dc:format><dc:type
           rdf:resource="http://purl.org/dc/dcmitype/StillImage" /><dc:title></dc:title></cc:Work></rdf:RDF></metadata><defs
     id="defs11" /><sodipodi:namedview
     pagecolor="#ffffff"
     bordercolor="#666666"
     borderopacity="1"
     objecttolerance="10"
     gridtolerance="10"
     guidetolerance="10"
     inkscape:pageopacity="0"
     inkscape:pageshadow="2"
     inkscape:window-width="1920"
     inkscape:window-height="1017"
     id="namedview9"
     showgrid="false"
     units="in"
     width="122in"
     inkscape:zoom="3.4847491"
     inkscape:cx="56.845784"
     inkscape:cy="55.28112"
     inkscape:window-x="-8"
     inkscape:window-y="-8"
     inkscape:window-maximized="1"
     inkscape:current-layer="Layer_1" /><style
     type="text/css"
     id="style2">.st0{fill-rule:evenodd;clip-rule:evenodd;}</style><g
     id="g6"
     style="fill:#448aff;fill-opacity:0.984314"
     transform="matrix(0.76940556,0,0,0.76940556,13.305675,10.905415)"><path
       class="st0"
       d="m 107.73,1.31 c -0.96,-0.89 -2.06,-1.37 -3.29,-1.3 -1.23,0 -2.33,0.48 -3.22,1.44 l -7.27,7.54 20.36,19.67 7.33,-7.68 c 0.89,-0.89 1.23,-2.06 1.23,-3.29 0,-1.23 -0.48,-2.4 -1.37,-3.22 z M 8.35,5.09 h 50.2 V 18.13 H 14.58 c -0.42,0 -0.81,0.18 -1.09,0.46 -0.28,0.28 -0.46,0.67 -0.46,1.09 v 87.71 c 0,0.42 0.18,0.81 0.46,1.09 0.28,0.28 0.67,0.46 1.09,0.46 h 87.71 c 0.42,0 0.81,-0.18 1.09,-0.46 0.28,-0.28 0.46,-0.67 0.46,-1.09 V 65.1 h 13.04 v 48.51 c 0,2.31 -0.95,4.38 -2.46,5.89 -1.51,1.51 -3.61,2.46 -5.89,2.46 H 8.35 c -2.32,0 -4.38,-0.95 -5.89,-2.46 C 0.95,118 0,115.89 0,113.61 V 13.44 C 0,11.12 0.95,9.06 2.46,7.55 3.96,6.04 6.07,5.09 8.35,5.09 Z m 61.27,69.98 c -2.67,0.89 -5.42,1.71 -8.09,2.61 -2.67,0.89 -5.35,1.78 -8.09,2.67 -6.38,2.06 -9.87,3.22 -10.63,3.43 -0.75,0.21 -0.27,-2.74 1.3,-8.91 l 5.07,-19.4 0.42,-0.43 20.02,20.02 z M 57.01,47.34 88.44,14.7 108.8,34.3 77.02,67.35 Z"
       id="path4"
       style="fill:#448aff;fill-opacity:0.984314" /></g></svg>
